# File created by Blade
# Date/Time:  Wed Jan 21 16:27:40 2015
# Frame Rate: 120.000 fps
#------------------------------------------------------
:FULLY-SPECIFIED
:DEGREES
1692
root 18.546197 3.828939 -5.304753 -246.517536 -31.472234 -175.430105
Spine 67.866322 0.877513 -5.980690
Head 23.519286 -18.705663 -6.405230
LeftShoulder -4.323473 -5.272104 15.269961
LeftArm -50.298727 28.047231 -111.774068
LeftForeArm 17.400448 -0.000000 81.568102
LeftHand -21.674895 0.000000 16.281018
LeftHandThumb1 -26.253704 0.000000 33.147579
RightShoulder -9.975365 -25.959198 0.575868
RightArm 4.591987 -18.742642 65.196087
RightForeArm -28.599535 -0.000000 81.207404
RightHand -12.855439 -0.000000 9.999636
RightHandThumb1 -24.326973 -0.000000 -32.862282
LeftUpLeg -89.593430 -8.126559 -13.606138
LeftLeg 131.356151 -0.000000 -0.000000
LeftFoot 0.824749 30.159012 2.919356
LeftToeBase 6.177519 -0.000000 -0.000000
RightUpLeg -84.610727 -1.514231 -18.319586
RightLeg 133.766934 -0.000000 -0.000000
RightFoot -0.281760 -24.057248 -4.017362
RightToeBase -5.034209 -0.000000 0.000000
1693
root 18.549525 3.830729 -5.305569 -246.523872 -31.279056 -175.316672
Spine 67.978667 0.772094 -5.443932
Head 23.203970 -18.522554 -6.299689
LeftShoulder -4.294601 -5.355115 15.298527
LeftArm -50.029661 28.033327 -111.850449
LeftForeArm 17.446252 -0.000000 81.207721
LeftHand -21.567315 -0.000000 16.160676
LeftHandThumb1 -26.253704 0.000000 33.147579
RightShoulder -9.540852 -25.670893 0.056294
RightArm 4.984291 -19.812093 65.209312
RightForeArm -29.891613 0.000000 79.863252
RightHand -12.861922 -0.000000 9.542915
RightHandThumb1 -24.326973 -0.000000 -32.862282
LeftUpLeg -89.648644 -8.114183 -13.044792
LeftLeg 131.549844 -0.000000 -0.000000
LeftFoot 0.449029 30.001032 2.710437
LeftToeBase 6.634452 -0.000000 -0.000000
RightUpLeg -84.454609 -1.423588 -19.991327
RightLeg 134.417399 -0.000000 -0.000000
RightFoot -0.731917 -23.599100 -4.806762
RightToeBase -5.318114 -0.000000 0.000000
1694
root 18.561824 3.836450 -5.310230 -246.596875 -30.989083 -175.147765
Spine 68.134343 0.617575 -4.818787
Head 22.946299 -18.312957 -6.257299
LeftShoulder -4.257589 -5.521739 15.358966
LeftArm -49.831729 27.996425 -112.033836
LeftForeArm 17.362866 0.000000 80.780356
LeftHand -21.458855 -0.000000 16.128265
LeftHandThumb1 -26.253704 0.000000 33.147579
RightShoulder -9.023096 -25.434260 -0.556766
RightArm 5.417379 -20.764717 65.306505
RightForeArm -30.769055 -0.000000 78.606356
RightHand -13.117464 -0.000000 9.490671
RightHandThumb1 -24.326973 -0.000000 -32.862282
LeftUpLeg -89.699573 -8.057537 -12.340866
LeftLeg 131.799967 -0.000000 -0.000000
LeftFoot 0.231135 29.684553 2.621580
LeftToeBase 6.836194 -0.000000 -0.000000
RightUpLeg -84.219027 -1.294259 -21.458477
RightLeg 135.017036 -0.000000 -0.000000
RightFoot -1.137200 -23.345901 -5.300854
RightToeBase -6.146074 -0.000000 0.000000
1695
root 18.576628 3.844197 -5.312628 -246.674489 -30.667588 -174.931256
Spine 68.301027 0.415794 -4.132598
Head 22.670053 -18.067038 -6.215972
LeftShoulder -4.176565 -5.623236 15.383198
LeftArm -49.521202 27.930191 -112.163405
LeftForeArm 17.386801 -0.000000 80.313028
LeftHand -21.336066 0.000000 16.154720
LeftHandThumb1 -26.253704 0.000000 33.147579
RightShoulder -8.491509 -25.166520 -1.125165
RightArm 5.790843 -21.781554 65.294253
RightForeArm -31.759648 -0.000000 77.344476
RightHand -13.173064 -0.000000 9.430436
RightHandThumb1 -24.326973 -0.000000 -32.862282
LeftUpLeg -89.745012 -8.025458 -11.596369
LeftLeg 132.019662 -0.000000 -0.000000
LeftFoot 0.043138 29.438629 2.414635
LeftToeBase 6.178212 -0.000000 -0.000000
RightUpLeg -83.931504 -1.172710 -22.881066
RightLeg 135.580377 -0.000000 -0.000000
RightFoot -1.599292 -22.994233 -5.894337
RightToeBase -6.880893 -0.000000 0.000000
1696
root 18.589660 3.854806 -5.315817 -246.731226 -30.358540 -174.760323
Spine 68.508555 0.278138 -3.424384
Head 22.338376 -17.976675 -6.079554
LeftShoulder -4.121926 -5.807858 15.496055
LeftArm -49.244471 27.954618 -112.416655
LeftForeArm 17.410327 -0.000000 79.743356
LeftHand -21.206854 -0.000000 16.238956
LeftHandThumb1 -26.253704 0.000000 33.147579
RightShoulder -8.096825 -24.967484 -1.620386
RightArm 6.380127 -22.939779 65.115423
RightForeArm -32.353703 0.000000 75.939087
RightHand -13.754331 0.000000 8.927471
RightHandThumb1 -24.326973 -0.000000 -32.862282
LeftUpLeg -89.748292 -7.881203 -10.901979
LeftLeg 132.268353 -0.000000 -0.000000
LeftFoot -0.380178 29.158058 2.211870
LeftToeBase 6.278664 -0.000000 -0.000000
RightUpLeg -83.636173 -1.032610 -24.291229
RightLeg 136.119847 -0.000000 -0.000000
RightFoot -1.974526 -22.664744 -6.233864
RightToeBase -8.839722 -0.000000 0.000000
1697
root 18.601775 3.863339 -5.318356 -246.792977 -30.016734 -174.591026
Spine 68.694332 0.045209 -2.755026
Head 22.111507 -17.753069 -6.181730
LeftShoulder -4.033528 -6.012398 15.550207
LeftArm -49.031126 27.849870 -112.678171
LeftForeArm 17.364037 -0.000000 79.151317
LeftHand -21.017389 -0.000000 16.338767
LeftHandThumb1 -26.253704 0.000000 33.147579
RightShoulder -7.505730 -24.772009 -2.270121
RightArm 6.837123 -23.552166 65.066191
RightForeArm -31.668331 0.000000 74.586199
RightHand -13.966325 -0.000000 9.076238
RightHandThumb1 -24.326973 -0.000000 -32.862282
LeftUpLeg -89.773920 -7.807152 -10.128538
LeftLeg 132.532717 -0.000000 -0.000000
LeftFoot -0.679592 28.777048 2.153734
LeftToeBase 6.532867 -0.000000 -0.000000
RightUpLeg -83.307835 -0.885154 -25.621673
RightLeg 136.610504 -0.000000 -0.000000
RightFoot -2.573190 -22.204488 -6.360789
RightToeBase -9.676146 -0.000000 0.000000
1698
root 18.618090 3.872252 -5.316954 -246.828551 -29.684608 -174.443529
Spine 68.923722 -0.147675 -2.064977
Head 21.791035 -17.638430 -6.196240
LeftShoulder -3.945149 -6.016393 15.649085
LeftArm -48.545435 27.901896 -112.871863
LeftForeArm 17.270488 -0.000000 78.491305
LeftHand -20.775823 -0.000000 16.503811
LeftHandThumb1 -26.253704 0.000000 33.147579
RightShoulder -6.985121 -24.589310 -2.834691
RightArm 7.132411 -23.632867 65.025430
RightForeArm -28.503119 -0.000000 73.460646
RightHand -14.385440 0.000000 8.955884
RightHandThumb1 -24.326973 -0.000000 -32.862282
LeftUpLeg -89.811067 -7.725414 -9.322252
LeftLeg 132.843665 -0.000000 -0.000000
LeftFoot -0.883626 28.298949 2.271513
LeftToeBase 6.639448 -0.000000 -0.000000
RightUpLeg -82.977010 -0.717421 -26.885111
RightLeg 137.071970 -0.000000 -0.000000
RightFoot -3.147580 -21.925835 -6.587144
RightToeBase -10.438017 -0.000000 0.000000
1699
root 18.635964 3.885944 -5.311792 -246.896679 -29.247744 -174.269855
Spine 69.225898 -0.410099 -1.299727
Head 21.428088 -17.503088 -6.339510
LeftShoulder -3.883506 -6.221903 15.720460
LeftArm -48.227419 27.823837 -113.161321
LeftForeArm 17.244806 -0.000000 77.767283
LeftHand -20.448185 -0.000000 16.588229
LeftHandThumb1 -26.253704 0.000000 33.147579
RightShoulder -6.459430 -24.407728 -3.443081
RightArm 7.241866 -23.596614 64.921538
RightForeArm -24.331599 0.000000 72.985048
RightHand -14.468810 -0.000000 7.451055
RightHandThumb1 -24.326973 -0.000000 -32.862282
LeftUpLeg -89.803656 -7.649685 -8.479212
LeftLeg 133.128591 -0.000000 -0.000000
LeftFoot -1.123674 28.081787 2.174432
LeftToeBase 6.342349 -0.000000 -0.000000
RightUpLeg -82.582375 -0.496679 -27.984209
RightLeg 137.469757 -0.000000 -0.000000
RightFoot -3.671825 -21.486315 -6.863370
RightToeBase -11.151976 -0.000000 0.000000
